<!-- Generator: Adobe Illustrator 22.1.0, SVG Export Plug-In  -->
<svg version="1.1"
	 xmlns="http://www.w3.org/2000/svg" xmlns:xlink="http://www.w3.org/1999/xlink" xmlns:a="http://ns.adobe.com/AdobeSVGViewerExtensions/3.0/"
	 x="0px" y="0px" width="121.52px" height="931.989px" viewBox="0 0 121.52 931.989"
	 style="enable-background:new 0 0 121.52 931.989;" xml:space="preserve">
<style type="text/css">
	.st0{fill:#DFCFBD;}
	.st1{clip-path:url(#SVGID_2_);}
	.st2{fill:none;stroke:#C4AF96;stroke-miterlimit:10;}
	.st3{opacity:0.36;fill:url(#SVGID_3_);}
	.st4{fill:none;stroke:#98705A;stroke-miterlimit:10;}
	.st5{fill:#8C8884;}
	.st6{fill:#96908A;}
	.st7{fill:#EFEFEF;}
	.st8{fill:#C4AF96;}
	.st9{fill:#333333;}
	.st10{fill:#4D4D4D;}
	.st11{fill:#77DBE0;}
	.st12{fill:#5CD6A4;}
	.st13{fill:#FFFFFF;}
	.st14{clip-path:url(#SVGID_5_);}
	.st15{opacity:0.36;fill:url(#SVGID_6_);}
</style>
<defs>
</defs>
<circle class="st0" cx="59.915" cy="861.385" r="53.141"/>
<g>
	<defs>
		<circle id="SVGID_1_" cx="59.915" cy="861.181" r="53.141"/>
	</defs>
	<clipPath id="SVGID_2_">
		<use xlink:href="#SVGID_1_"  style="overflow:visible;"/>
	</clipPath>
	<g class="st1">
		<path class="st2" d="M5.093,875.973c11.299-0.712,21.154-7.802,29.453-15.503c14.494-13.45,26.432-29.646,34.992-47.471"/>
		<path class="st2" d="M9.292,886.694c10.249-1.026,19.785-6.119,27.517-12.924s13.821-15.266,19.339-23.963
			c9.428-14.859,17.395-30.645,23.75-47.056"/>
		<path class="st2" d="M17.388,899.89c6.761-2.652,13.079-6.43,18.616-11.129c10.034-8.516,17.29-19.818,23.623-31.355
			c9.155-16.677,16.71-34.231,22.528-52.344"/>
		<path class="st2" d="M36.857,810.415c-3.05,13.969,0.828,28.99,5.754,41.894c10.906,28.569,28.259,53.908,50.585,63.431"/>
		<path class="st2" d="M39.799,810.187c-0.838,19.835,4.518,39.89,15.119,56.618s26.401,30.052,44.603,37.615"/>
		<path class="st2" d="M44.476,808.271c-3.949,18.605,2.752,38.171,14.518,53.69c11.766,15.519,28.207,27.478,45.297,37.928"/>
		<path class="st2" d="M49.537,807.452c3.939,35.094,26.302,67.594,57.672,83.813"/>
		<path class="st2" d="M56.811,808.04c1.701,17.372,9.607,33.827,20.871,47.161c11.264,13.334,25.767,23.681,41.332,31.582"/>
		<path class="st2" d="M67.583,808.804c0.528,6.946,2.497,13.716,5.051,20.198c5.03,12.767,12.386,24.613,21.597,34.784
			c5.298,5.849,11.538,11.332,19.19,13.263"/>
		<path class="st2" d="M74.04,810.23c6.153,25.867,23.801,48.775,47.243,61.322"/>
		<path class="st2" d="M39.713,918.718c9.473-4.405,17.119-12.048,23.246-20.51c19.543-26.99,24.516-61.534,28.907-94.566"/>
		<path class="st2" d="M68.109,917.005c5.517-1.671,8.869-7.155,11.329-12.368c13.744-29.132,15.5-62.274,17.024-94.449"/>
		<path class="st2" d="M95.224,908.887c9.702-22.047,14.606-46.191,14.274-70.276"/>
		<path class="st2" d="M17.437,820.906c-1.599,40.827,18.48,81.883,51.688,105.687"/>
		<path class="st2" d="M22.576,817.968c-2.041,21.743,4.34,43.689,14.972,62.764s25.349,35.56,40.89,50.901"/>
		<path class="st2" d="M15.623,826.827c-4.589,7.086-3.592,16.287-2.301,24.629c3.772,24.373,9.581,50.371,27.857,66.931"/>
		<path class="st2" d="M78.531,808.271c-0.015,6.03,2.615,11.746,5.659,16.951c6.998,11.963,16.505,22.451,27.726,30.586"/>
		<path class="st2" d="M27.534,817.197c-0.014,40.52,21.741,80.406,55.815,102.332"/>
		<path class="st2" d="M1.259,836.107c10.44,3.599,22.125-0.056,31.457-5.962c10.122-6.406,18.545-15.47,24.195-26.033"/>
		<path class="st2" d="M0.327,847.649c4.837,4.172,12.019,4.197,18.245,2.771c14.565-3.334,26.972-13.221,36.091-25.057
			c9.119-11.836,15.33-25.609,21.281-39.315"/>
		<path class="st2" d="M84.065,808.326c0.802,24.863-9.979,48.517-21.425,70.603c-8.045,15.525-17.456,31.724-33.126,39.484"/>
		<path class="st2" d="M102.368,819.533c-0.004,33.897-6.355,67.783-18.626,99.381"/>
	</g>
</g>
<linearGradient id="SVGID_3_" gradientUnits="userSpaceOnUse" x1="33.4423" y1="907.2368" x2="86.3872" y2="815.5334">
	<stop  offset="0" style="stop-color:#F9B39C"/>
	<stop  offset="1" style="stop-color:#FFE9CF"/>
</linearGradient>
<circle class="st3" cx="59.915" cy="861.385" r="52.936"/>
<path class="st4" d="M60.06,655.349v-17.674c0,0,12.652-104.965-4.667-127.007s20.993-153.773-4.199-215.649
	c-17.47-42.911-7.68-85.679-0.038-107.864c4.183-12.143,6.336-24.884,6.336-37.727V0"/>
<g>
	<path class="st5" d="M97.07,738.24c0,0,14.314,37.126,9.588,49.836c-4.726,12.71-11.732,17.599-11.732,17.599
		s10.627,9.371,3.277,15.359c-7.35,5.988-13.38,0-13.38,0l-11.407-31.002l-2.778,28.925l-8.303-1.549l-2.421-94.671L97.07,738.24z"
		/>
	<polygon class="st6" points="57.165,734.435 65.053,734.435 61.109,702.598 	"/>
	<path class="st5" d="M24.253,738.24c0,0-14.314,37.126-9.588,49.836s11.732,17.599,11.732,17.599s-10.627,9.371-3.277,15.359
		c7.35,5.988,13.38,0,13.38,0l11.407-31.002l2.778,28.925l8.303-1.549l2.421-94.671L24.253,738.24z"/>
	<path class="st7" d="M46.981,815.254l3.704,3.702c0,0,11.262-3.048,19.654,0s9.776-77.952,9.776-77.952l-13.634-11.25l-22.75,5.75
		L46.981,815.254z"/>
	<path class="st6" d="M85.338,691.345l-24.826,10.989l-24.826-10.989c0,0-13.111,28.683-12.547,37.417
		c0.563,8.734,4.498,28.212,3.978,34.41c-0.52,6.198,16.887,34.936,11.635,39.725c-5.252,4.79-13.403,4.226-10.032,13.242
		c3.371,9.016,21.966,2.817,21.966,2.817s5.353-3.663,3.663-15.214s-5.635-40.007-5.635-40.007s0.141-25.92,8.452-29.301h6.694
		c8.311,3.381,8.452,29.301,8.452,29.301s-3.944,28.456-5.635,40.007s3.663,15.214,3.663,15.214s18.595,6.198,21.966-2.817
		s-4.78-8.452-10.032-13.242c-5.252-4.79,12.155-33.527,11.635-39.725c-0.52-6.198,3.414-25.676,3.978-34.41
		S85.338,691.345,85.338,691.345z"/>
	<path class="st8" d="M34.206,689.37h53.275c0,0,0,16.831-27.566,16.634C38.691,705.852,34.206,689.37,34.206,689.37z"/>
	<path class="st6" d="M27.127,658.216c0,0,2.273-33.171,11.688-28.022s16.017,28.022,16.017,28.022l6.277,44.308
		c0,0-26.081,2.635-33.982-23.471C27.127,679.053,26.292,665.897,27.127,658.216z"/>
	<path class="st6" d="M95.091,658.216c0,0-2.273-33.171-11.688-28.022s-16.017,28.022-16.017,28.022l-6.277,44.308
		c0,0,26.081,2.635,33.982-23.471C95.091,679.053,95.926,665.897,95.091,658.216z"/>
	<path class="st6" d="M48.122,647.788c0,0,15.815-3.467,26.846,0s-13.86,54.736-13.86,54.736l-13.882-51.269L48.122,647.788z"/>
	<path class="st9" d="M66.119,691.413c-2.908-1.321-3.523-3.891-3.523-3.891l-1.459-1.94v-0.072l-0.027,0.036l-0.027-0.036v0.072
		l-1.459,1.94c0,0-0.616,2.569-3.523,3.891l0.858-0.113c2.735-0.359,5.569-0.359,8.304,0L66.119,691.413z"/>
	<path class="st10" d="M58.722,681.94h4.774c1.262,0,1.961,1.599,1.169,2.673l-2.387,3.237c-0.601,0.815-1.737,0.815-2.338,0
		l-2.387-3.237C56.761,683.539,57.46,681.94,58.722,681.94z"/>
	<circle class="st11" cx="75.567" cy="668.291" r="4.621"/>
	<circle class="st9" cx="75.567" cy="668.291" r="2.828"/>
	<circle class="st12" cx="48.352" cy="668.291" r="4.621"/>
	<circle class="st9" cx="48.352" cy="668.291" r="2.828"/>
</g>
<circle class="st13" cx="77.789" cy="666.601" r="1.137"/>
<circle class="st13" cx="50.042" cy="666.601" r="1.137"/>
</svg>