<!-- Generator: Adobe Illustrator 22.1.0, SVG Export Plug-In  -->
<svg version="1.1"
	 xmlns="http://www.w3.org/2000/svg" xmlns:xlink="http://www.w3.org/1999/xlink" xmlns:a="http://ns.adobe.com/AdobeSVGViewerExtensions/3.0/"
	 x="0px" y="0px" width="253.721px" height="42.078px" viewBox="0 0 253.721 42.078"
	 style="enable-background:new 0 0 253.721 42.078;" xml:space="preserve">
<style type="text/css">
	.st0{fill:#98705A;}
</style>
<defs>
</defs>
<g>
	<g>
		<g>
			<path class="st0" d="M12.552,42.071c-4.137,0-7.378-2.25-9.634-6.687C0.982,31.62,0,26.792,0,21.038
				C0,15.25,0.982,10.404,2.92,6.636c2.256-4.399,5.497-6.631,9.632-6.631s7.375,2.231,9.631,6.632
				c1.972,3.762,2.973,8.61,2.973,14.401c0,5.757-1.001,10.588-2.977,14.357C19.929,39.821,16.688,42.071,12.552,42.071z
				 M12.552,4.866c-2.323,0-4.1,1.504-5.43,4.599c-1.258,2.979-1.896,6.874-1.896,11.573c0,4.665,0.639,8.543,1.898,11.527
				c1.328,3.088,3.104,4.592,5.428,4.592c2.249,0,3.973-1.501,5.27-4.59c1.297-2.992,1.952-6.867,1.952-11.529
				c0-4.696-0.655-8.589-1.948-11.57C16.524,6.368,14.801,4.866,12.552,4.866z"/>
		</g>
		<g>
			<path class="st0" d="M39.141,42.02c-3.823,0-6.859-1.253-9.025-3.724c-1.958-2.183-2.954-4.945-2.954-8.204V2.722
				c0-0.781,0.264-1.458,0.762-1.956c0.543-0.484,1.151-0.709,1.852-0.709c0.642,0,1.216,0.193,1.707,0.575
				c0.443,0.396,0.906,1.035,0.906,2.09v27.475c0,2.137,0.619,3.795,1.893,5.068s2.881,1.893,4.913,1.893
				c1.983,0,3.565-0.662,4.836-2.024c1.327-1.389,1.969-3.154,1.969-5.405V2.409c0-0.735,0.278-1.371,0.804-1.84l0.053-0.047
				l0.059-0.038c0.478-0.318,1.049-0.479,1.698-0.479c0.639,0,1.229,0.218,1.715,0.632c0.421,0.312,0.898,0.884,0.898,1.877v27.475
				c0,3.238-1.128,6.046-3.352,8.344C45.581,40.775,42.64,42.02,39.141,42.02z"/>
		</g>
		<g>
			<path class="st0" d="M56.157,42.071c-0.714,0-1.354-0.263-1.852-0.761c-0.506-0.505-0.762-1.182-0.762-2.009V7.249
				c0-2.147,0.541-3.756,1.608-4.78c1.105-1.063,2.83-1.58,5.271-1.58h5.308c3.047,0,5.643,0.765,7.717,2.273
				c2.726,1.996,4.106,5.016,4.106,8.978c0,2.669-0.485,4.837-1.441,6.444c-0.521,0.893-1.255,1.695-2.19,2.396
				c0.63,0.371,1.193,0.854,1.686,1.449c1.19,1.47,1.79,3.502,1.79,6.049c-0.034,2.396-0.001,4.2,0.101,5.378
				c0.101,2.006,0.325,3.482,0.671,4.425c0.298,0.794,0.288,1.583-0.03,2.273c-0.349,0.642-0.828,1.071-1.457,1.335l-0.096,0.034
				c-0.319,0.098-0.641,0.147-0.956,0.147c-0.322,0-0.643-0.052-0.951-0.154c-0.739-0.307-1.235-0.826-1.504-1.529
				c-0.488-1.2-0.801-2.814-0.948-4.918c-0.072-1.282-0.107-3.173-0.107-5.794l0.053-2.21c0-1.05-0.438-1.916-1.337-2.625
				c-0.834-0.661-1.652-0.981-2.503-0.981h-9.563v15.442c0,1.056-0.463,1.694-0.851,2.045
				C57.458,41.809,56.836,42.071,56.157,42.071z M67.084,18.997c1.487,0,2.707-0.654,3.731-1.999
				c1.057-1.338,1.565-2.837,1.565-4.598c0-1.796-0.509-3.312-1.555-4.636c-1.035-1.359-2.256-2.014-3.742-2.014h-6.816
				c-0.969,0-1.256,0.217-1.304,0.26c-0.074,0.067-0.193,0.333-0.193,0.926v12.061H67.084z"/>
		</g>
		<g>
			<path class="st0" d="M110.064,42.071c-0.748,0-1.405-0.263-1.903-0.761c-0.519-0.464-0.813-1.153-0.813-1.956V7.821
				c0-2.43,0.598-4.217,1.776-5.312c1.173-1.091,3.03-1.621,5.676-1.621h13.789c0.748,0,1.406,0.264,1.904,0.762
				c0.464,0.466,0.709,1.088,0.709,1.8c0,0.68-0.245,1.284-0.709,1.748c-0.466,0.519-1.137,0.813-1.904,0.813h-14.518
				c-0.356,0-0.831,0.049-1.063,0.28c-0.104,0.117-0.175,0.383-0.175,0.749v10.969h13.361c1.031,0,1.661,0.414,2.008,0.761
				c0.483,0.429,0.762,1.064,0.762,1.8c0,0.685-0.264,1.289-0.764,1.751c-0.356,0.38-0.986,0.811-2.006,0.811h-13.361v16.224
				c0,0.819-0.324,1.519-0.938,2.022C111.47,41.809,110.812,42.071,110.064,42.071z"/>
		</g>
		<g>
			<path class="st0" d="M156.703,42.078c-0.4,0-0.784-0.091-1.14-0.27c-0.681-0.34-1.126-0.931-1.257-1.667l-3.117-11.392H140.33
				l-3.127,11.287c-0.288,0.759-0.729,1.278-1.344,1.638c-0.446,0.26-0.901,0.392-1.354,0.392c-0.205,0-0.41-0.027-0.609-0.082
				c-0.72-0.166-1.28-0.611-1.585-1.278c-0.323-0.646-0.305-1.433,0.069-2.311l9.815-35.473c0.807-2.421,2.411-2.918,3.618-2.918
				c1.184,0.032,2.749,0.547,3.638,2.82l0.033,0.102l9.782,35.904c0.276,0.968-0.011,1.669-0.302,2.084
				c-0.379,0.542-0.92,0.912-1.564,1.074C157.164,42.048,156.931,42.078,156.703,42.078z M149.913,23.889L145.809,8.93
				l-4.145,14.959H149.913z"/>
		</g>
		<g>
			<path class="st0" d="M176.253,42.072c-1.667,0-2.807-1-3.127-2.745l-4-21.115v21.246c0,0.766-0.294,1.437-0.85,1.939
				c-0.43,0.429-1.016,0.674-1.66,0.674c-0.68,0-1.283-0.245-1.747-0.709c-0.498-0.498-0.762-1.156-0.762-1.904V3.554
				c0-1.049,0.353-1.908,1.049-2.554c0.611-0.565,1.384-0.899,2.297-0.99c0.136-0.008,0.221-0.01,0.305-0.01
				c0.784,0,1.511,0.185,2.159,0.549c0.847,0.499,1.388,1.268,1.583,2.235l4.899,26.275l4.896-26.262
				c0.198-0.948,0.713-1.687,1.533-2.217c0.609-0.366,1.271-0.543,1.994-0.543c0.152,0,0.31,0.008,0.47,0.023
				c0.85,0.044,1.62,0.361,2.244,0.938c0.713,0.617,1.102,1.508,1.102,2.555v35.904c0,0.768-0.294,1.438-0.851,1.94
				c-0.429,0.428-1.015,0.673-1.658,0.673c-0.68,0-1.284-0.245-1.748-0.709c-0.498-0.497-0.761-1.156-0.761-1.904V18.302
				l-3.95,21.029c-0.481,1.794-1.656,2.74-3.324,2.74l-0.094-0.999V42.072z"/>
		</g>
	</g>
</g>
<g>
	<g>
		<g>
			<path class="st0" d="M197.825,42.071c-0.712,0-1.353-0.263-1.851-0.76c-0.499-0.499-0.763-1.176-0.763-1.957V2.93
				c0-0.841,0.244-1.538,0.725-2.074c0.536-0.536,1.177-0.799,1.889-0.799c-0.013-0.002,0.056-0.005,0.122-0.005
				c0.631,0,1.211,0.247,1.678,0.714c0.351,0.314,0.813,0.953,0.813,2.008v36.581c0,1.055-0.463,1.693-0.851,2.044
				C199.089,41.84,198.481,42.071,197.825,42.071z"/>
		</g>
		<g>
			<path class="st0" d="M212.738,41.083c-1.522,0-2.71-0.508-3.531-1.51c-0.801-0.924-1.215-2.281-1.215-4.012V2.875
				c0-0.84,0.243-1.537,0.724-2.071c0.536-0.536,1.176-0.799,1.89-0.799c0.679,0,1.301,0.263,1.799,0.759
				c0.533,0.534,0.813,1.264,0.813,2.111v32.631c0,0.362,0.038,0.56,0.064,0.654c0.079,0.021,0.262,0.061,0.601,0.061h14.986
				c0.77,0,1.413,0.225,1.913,0.668c0.489,0.488,0.743,1.028,0.801,1.646c0.004,0.736-0.241,1.323-0.706,1.787
				c-0.496,0.498-1.173,0.762-1.956,0.762H212.738z"/>
		</g>
		<g>
			<path class="st0" d="M240.504,42.071c-0.7,0-1.309-0.225-1.809-0.668l-0.08-0.079c-0.48-0.535-0.724-1.197-0.724-1.97V24.65
				L227.742,3.837c-0.382-0.705-0.404-1.474-0.049-2.187c0.269-0.534,0.688-0.958,1.249-1.264c0.482-0.242,0.938-0.356,1.386-0.356
				c0.157,0,0.313,0.015,0.468,0.042c0.507,0.085,1.223,0.389,1.666,1.344l8.047,17.266l8.041-17.063
				c0.313-0.73,0.896-1.251,1.671-1.473c0.213-0.079,0.505-0.13,0.804-0.13c0.352,0,0.714,0.07,1.077,0.21
				c0.677,0.283,1.146,0.748,1.389,1.356c0.237,0.474,0.398,1.216-0.071,2.157l-10.302,20.913v14.701
				c0,0.78-0.281,1.474-0.813,2.007C241.77,41.84,241.162,42.071,240.504,42.071z"/>
		</g>
	</g>
</g>
</svg>