<!-- Generator: Adobe Illustrator 22.1.0, SVG Export Plug-In  -->
<svg version="1.1"
	 xmlns="http://www.w3.org/2000/svg" xmlns:xlink="http://www.w3.org/1999/xlink" xmlns:a="http://ns.adobe.com/AdobeSVGViewerExtensions/3.0/"
	 x="0px" y="0px" width="133.584px" height="42.073px" viewBox="0 0 133.584 42.073"
	 style="enable-background:new 0 0 133.584 42.073;" xml:space="preserve">
<style type="text/css">
	.st0{fill:#98705A;}
</style>
<defs>
</defs>
<g>
	<g>
		<g>
			<path class="st0" d="M24.62,42.073c-0.4,0-0.784-0.091-1.14-0.27c-0.681-0.34-1.126-0.931-1.257-1.667l-3.117-11.392H8.247
				L5.12,40.032c-0.288,0.759-0.729,1.278-1.344,1.638c-0.446,0.26-0.901,0.392-1.354,0.392c-0.205,0-0.41-0.027-0.609-0.082
				c-0.72-0.166-1.28-0.611-1.585-1.278c-0.323-0.646-0.305-1.433,0.069-2.311l9.815-35.473C10.919,0.497,12.524,0,13.731,0
				c1.184,0.032,2.749,0.547,3.638,2.82l0.033,0.102l9.782,35.904c0.276,0.968-0.011,1.669-0.302,2.084
				c-0.379,0.542-0.92,0.912-1.564,1.074C25.081,42.043,24.848,42.073,24.62,42.073z M17.83,23.884L13.726,8.925L9.581,23.884H17.83
				z"/>
		</g>
		<g>
			<path class="st0" d="M32.879,41.078c-1.364,0-2.506-0.495-3.394-1.471c-0.862-0.947-1.301-2.101-1.301-3.427V6.094
				c0-1.709,0.479-3.008,1.423-3.86c0.945-0.902,2.396-1.35,4.416-1.35h6.661c2.817,0,5.235,0.931,7.188,2.767
				c2.144,2.025,3.229,4.735,3.229,8.056c0,1.966-0.429,3.723-1.273,5.22c-0.56,1.044-1.294,1.939-2.189,2.672
				c0.954,0.511,1.805,1.198,2.544,2.057c1.646,1.911,2.48,4.508,2.48,7.719c0,3.551-1.097,6.447-3.26,8.607
				c-2.02,2.053-4.588,3.098-7.627,3.098H32.879z M33.411,35.09c0,0.431,0.087,0.745,0.259,0.935
				c0.064,0.063,0.242,0.191,0.666,0.191h7.753c1.524,0,2.78-0.67,3.839-2.047c1.052-1.357,1.562-2.921,1.562-4.784
				c0-1.893-0.524-3.47-1.604-4.823c-1.07-1.391-2.359-2.061-3.953-2.061h-8.521V35.09z M41.673,17.64
				c1.09,0,2.032-0.578,2.881-1.767c0.93-1.24,1.375-2.593,1.375-4.154c0-1.637-0.432-3.027-1.319-4.252
				c-0.846-1.157-1.756-1.721-2.78-1.721h-7.701c-0.354,0-0.544,0.047-0.633,0.08c-0.036,0.075-0.084,0.231-0.084,0.533v11.28
				H41.673z"/>
		</g>
		<g>
			<path class="st0" d="M66.963,42.066c-4.137,0-7.378-2.25-9.634-6.687c-1.936-3.765-2.918-8.593-2.918-14.347
				c0-5.788,0.982-10.634,2.92-14.402C59.587,2.231,62.828,0,66.963,0s7.375,2.231,9.631,6.632c1.972,3.762,2.973,8.61,2.973,14.401
				c0,5.757-1.001,10.588-2.977,14.357C74.34,39.816,71.1,42.066,66.963,42.066z M66.963,4.861c-2.323,0-4.1,1.504-5.43,4.599
				c-1.258,2.979-1.896,6.874-1.896,11.573c0,4.665,0.639,8.543,1.898,11.527c1.328,3.088,3.104,4.592,5.428,4.592
				c2.249,0,3.973-1.501,5.27-4.59c1.297-2.992,1.952-6.867,1.952-11.529c0-4.696-0.655-8.589-1.948-11.57
				C70.936,6.363,69.212,4.861,66.963,4.861z"/>
		</g>
		<g>
			<path class="st0" d="M93.552,42.015c-3.823,0-6.859-1.253-9.025-3.724c-1.958-2.183-2.954-4.945-2.954-8.204V2.717
				c0-0.781,0.264-1.458,0.762-1.956c0.543-0.484,1.151-0.709,1.852-0.709c0.642,0,1.216,0.193,1.706,0.575
				c0.444,0.396,0.907,1.035,0.907,2.09v27.475c0,2.137,0.619,3.795,1.893,5.068s2.881,1.893,4.913,1.893
				c1.983,0,3.565-0.662,4.836-2.024c1.327-1.389,1.969-3.154,1.969-5.405V2.404c0-0.735,0.278-1.371,0.804-1.84l0.053-0.047
				l0.059-0.038C101.802,0.161,102.373,0,103.023,0c0.639,0,1.229,0.218,1.715,0.632c0.421,0.312,0.898,0.884,0.898,1.877v27.475
				c0,3.238-1.128,6.046-3.352,8.344C99.992,40.771,97.051,42.015,93.552,42.015z"/>
		</g>
		<g>
			<path class="st0" d="M120.194,42.066c-0.7,0-1.309-0.225-1.809-0.668c-0.541-0.538-0.804-1.197-0.804-1.945V5.746h-8.419
				c-1.354,0-2.195-0.905-2.248-2.422c-0.028-0.765,0.171-1.374,0.591-1.811c0.403-0.418,0.961-0.63,1.657-0.63h21.751
				c0.681,0,1.293,0.214,1.821,0.636l0.082,0.074c0.439,0.439,0.701,0.993,0.758,1.604c0.061,0.684-0.165,1.301-0.654,1.788
				c-0.504,0.505-1.18,0.761-2.007,0.761h-8.106v33.707c0,0.768-0.294,1.438-0.851,1.94
				C121.459,41.835,120.852,42.066,120.194,42.066z"/>
		</g>
	</g>
</g>
</svg>